<svg xmlns="http://www.w3.org/2000/svg" width="24.399" height="24.422" viewBox="0 0 24.399 24.422">
  <g id="Icon_-_Instagram" data-name="Icon - Instagram" transform="translate(-11.167 -9.174)">
    <g id="icons" transform="translate(11.167 9.174)">
      <path id="instagram-_167_" data-name="instagram-[#167]" d="M291.161,7279.15a6.729,6.729,0,0,0-7.061,7.051c-.056,1.228-.382,10.5.564,12.937a6.149,6.149,0,0,0,3.551,3.544,8.877,8.877,0,0,0,2.946.563c10.81.49,14.817.224,16.507-4.107a8.851,8.851,0,0,0,.563-2.943c.494-10.848-.08-13.2-1.964-15.083-1.494-1.491-3.252-2.507-15.106-1.961m.1,21.914a6.721,6.721,0,0,1-2.254-.418,3.969,3.969,0,0,1-2.3-2.3c-.721-1.849-.482-10.628-.418-12.048a5.191,5.191,0,0,1,1.326-3.646c1.214-1.212,2.782-1.807,13.461-1.324a5.216,5.216,0,0,1,3.65,1.324c1.214,1.212,1.816,2.794,1.326,13.442a6.685,6.685,0,0,1-.418,2.251c-1.1,2.817-3.626,3.21-14.369,2.717m9.928-16.337a1.457,1.457,0,1,0,1.457-1.455,1.455,1.455,0,0,0-1.457,1.455m-11.256,6.47a6.233,6.233,0,1,0,6.233-6.223,6.229,6.229,0,0,0-6.233,6.223m2.187,0a4.046,4.046,0,1,1,4.046,4.041,4.043,4.043,0,0,1-4.046-4.041" transform="translate(-284 -7279.001)" fill="#fff" fill-rule="evenodd"/>
    </g>
  </g>
</svg>
