<svg xmlns="http://www.w3.org/2000/svg" width="26.234" height="21.19" viewBox="0 0 26.234 21.19">
  <g id="Icon_-_Twitter" data-name="Icon - Twitter" transform="translate(-8.671 -11.083)">
    <g id="icons" transform="translate(8.671 11.083)">
      <path id="twitter-_154_" data-name="twitter-[#154]" d="M12.25,7382.19a15.162,15.162,0,0,0,15.314-15.224c0-.232,0-.463-.016-.691a10.9,10.9,0,0,0,2.685-2.77,10.758,10.758,0,0,1-3.09.842,5.38,5.38,0,0,0,2.366-2.96,10.816,10.816,0,0,1-3.418,1.3,5.411,5.411,0,0,0-7.616-.232,5.337,5.337,0,0,0-1.557,5.113,15.319,15.319,0,0,1-11.093-5.59,5.335,5.335,0,0,0,1.667,7.142,5.369,5.369,0,0,1-2.444-.668v.068a5.361,5.361,0,0,0,4.318,5.244,5.388,5.388,0,0,1-2.429.091,5.383,5.383,0,0,0,5.028,3.716,10.836,10.836,0,0,1-6.684,2.295A11.042,11.042,0,0,1,4,7379.788a15.309,15.309,0,0,0,8.25,2.4" transform="translate(-4 -7361)" fill="#fff" fill-rule="evenodd"/>
    </g>
  </g>
</svg>
